<?xml version="1.0" encoding="iso-8859-1"?>
<!-- Generator: Adobe Illustrator 19.0.0, SVG Export Plug-In . SVG Version: 6.00 Build 0)  -->
<svg xmlns="http://www.w3.org/2000/svg" xmlns:xlink="http://www.w3.org/1999/xlink" version="1.1" id="Layer_1" x="0px" y="0px" viewBox="0 0 512 512" style="enable-background:new 0 0 512 512;" xml:space="preserve" width="512px" height="512px">
<g>
	<g>
		<g>
			<path d="M448,330.667c-20.822,0-64.004,11.603-85.885,17.889c-2.902-30.612-42.124-41.448-82.656-49.681     c-18.5-3.75-32.26-10.385-45.573-16.802c-16.417-7.927-31.927-15.406-52.552-15.406c-23.625,0-45.139,4.828-57.285,8.171     c-3.212-11.169-12.328-20.174-24.413-22.587L12.76,234.875c-3.156-0.594-6.396,0.198-8.854,2.208     C1.438,239.115,0,242.135,0,245.333V416c0,5.896,4.771,10.667,10.667,10.667H77.5c13.165,0,24.384-8.382,29.212-20.147     c23.875,11.383,134.342,62.814,181.288,62.814c41.375,0,126.531-41.865,182.875-69.563c14.708-7.229,26.865-13.208,34.75-16.667     c3.875-1.708,6.375-5.542,6.375-9.771C512,348.208,485.688,330.667,448,330.667z M103.917,285.135L88.052,396.177     c-0.74,5.219-5.281,9.156-10.552,9.156H21.333v-146.99l74.115,14.823C101,274.281,104.719,279.531,103.917,285.135z      M461.458,380.625C410.208,405.823,324.417,448,288,448c-38.802,0-140.688-45.427-176.667-62.927     c-0.043-0.021-0.09-0.013-0.133-0.034l12.557-87.898c7.759-2.43,31.513-9.141,57.576-9.141c15.75,0,27.906,5.865,43.292,13.281     c13.813,6.667,29.479,14.219,50.583,18.51c46.354,9.396,66.125,19.031,66.125,32.208c0,2.604-0.792,4.208-2.823,5.719     c-6.76,5.063-33.24,13.583-132.813-15.948c-5.646-1.667-11.583,1.552-13.26,7.198c-1.677,5.646,1.552,11.583,7.198,13.26     c49.125,14.563,86.698,21.823,113.323,21.823c17.365,0,30.073-3.083,38.313-9.24c0.711-0.53,1.232-1.178,1.878-1.75     c0.665-0.073,1.32,0.007,1.987-0.198C374,367.063,427.438,352,448,352c17.396,0,35.698,5.292,41.094,15.208     C481.646,370.708,472.219,375.344,461.458,380.625z" fill="#FFFFFF"/>
			<path d="M373.333,277.333c64.698,0,117.333-52.635,117.333-117.333S438.031,42.667,373.333,42.667S256,95.302,256,160     S308.635,277.333,373.333,277.333z M373.333,64c52.938,0,96,43.063,96,96s-43.063,96-96,96c-52.938,0-96-43.063-96-96     S320.396,64,373.333,64z" fill="#FFFFFF"/>
			<path d="M397.792,199.542c2.083,2.083,4.813,3.125,7.542,3.125c2.729,0,5.458-1.042,7.542-3.125     c4.167-4.167,4.167-10.917,0-15.083L384,155.583V96c0-5.896-4.771-10.667-10.667-10.667c-5.896,0-10.667,4.771-10.667,10.667v64     c0,2.833,1.125,5.542,3.125,7.542L397.792,199.542z" fill="#FFFFFF"/>
		</g>
	</g>
</g>
<g>
</g>
<g>
</g>
<g>
</g>
<g>
</g>
<g>
</g>
<g>
</g>
<g>
</g>
<g>
</g>
<g>
</g>
<g>
</g>
<g>
</g>
<g>
</g>
<g>
</g>
<g>
</g>
<g>
</g>
</svg>
