<?xml version="1.0" encoding="iso-8859-1"?>
<!-- Generator: Adobe Illustrator 19.0.0, SVG Export Plug-In . SVG Version: 6.00 Build 0)  -->
<svg xmlns="http://www.w3.org/2000/svg" xmlns:xlink="http://www.w3.org/1999/xlink" version="1.1" id="Capa_1" x="0px" y="0px" viewBox="0 0 512 512" style="enable-background:new 0 0 512 512;" xml:space="preserve" width="512px" height="512px">
<g>
	<g>
		<g>
			<path d="M373.333,277.334c64.698,0,117.333-52.635,117.333-117.333c0-64.698-52.635-117.333-117.333-117.333     S256,95.303,256,160.001C256,224.699,308.635,277.334,373.333,277.334z M362.667,96.001c0-5.896,4.771-10.667,10.667-10.667     c5.896,0,10.667,4.771,10.667,10.667v59.583l28.875,28.875c4.167,4.167,4.167,10.917,0,15.083     c-2.083,2.083-4.813,3.125-7.542,3.125c-2.729,0-5.458-1.042-7.542-3.125l-32-32c-2-2-3.125-4.708-3.125-7.542V96.001z" fill="#FFFFFF"/>
			<path d="M99.625,252.248L12.75,234.873c-3.104-0.625-6.375,0.188-8.854,2.208C1.437,239.113,0,242.134,0,245.332v170.667     c0,5.896,4.771,10.667,10.667,10.667H77.5c15.833,0,29.458-11.813,31.688-27.469l15.854-111.042     C127.437,271.342,116.292,255.571,99.625,252.248z" fill="#FFFFFF"/>
			<path d="M448,330.665c-13.319,0-35.779,4.747-55.974,9.815c-4.945,1.241-8.145,5.781-8.034,10.878     c0.005,0.212,0.008,0.426,0.008,0.641c0,16.135-7.104,30.302-19.979,39.917c-12.479,9.313-28.5,13.656-50.417,13.656     c-28.704,0-67.768-7.434-119.438-22.712c-5.332-1.577-9.102-6.879-8.059-12.341c1.202-6.301,7.56-10.073,13.517-8.29     c49.292,14.604,87.625,22.01,113.979,22.01c22.438,0,32.25-5.375,37.667-9.427c7.458-5.563,11.396-13.448,11.396-22.813     c0-1.789-0.326-3.4-0.552-5.068c-4.038-29.449-42.814-39.964-82.656-48.057c-18.5-3.75-32.271-10.385-45.583-16.813     c-16.417-7.917-31.917-15.396-52.542-15.396c-8.177,0-16.812,0.595-25.678,1.764c-5.598,0.74-9.638,5.759-9.216,11.389     c0.311,4.134,0.227,7.844-0.293,11.357l-15.854,111.073c-0.146,1-0.438,1.938-0.688,2.885c-0.021,0.094-0.542,2.052-0.563,2.135     c-1.229,5.01,1.292,10.188,6,12.292c50.75,22.708,118.5,49.771,152.958,49.771c41.375,0,126.563-41.875,182.917-69.583     c14.546-7.15,26.599-13.083,34.48-16.546c3.818-1.677,6.556-5.313,6.6-9.482C512.271,348.388,485.882,330.665,448,330.665z" fill="#FFFFFF"/>
		</g>
	</g>
</g>
<g>
</g>
<g>
</g>
<g>
</g>
<g>
</g>
<g>
</g>
<g>
</g>
<g>
</g>
<g>
</g>
<g>
</g>
<g>
</g>
<g>
</g>
<g>
</g>
<g>
</g>
<g>
</g>
<g>
</g>
</svg>
